<svg width="18" height="18" viewBox="0 0 18 18" fill="none" xmlns="http://www.w3.org/2000/svg">
<path d="M16.9999 9.00043H13.4443M15.2221 10.7782L15.2221 7.22266" stroke="white" stroke-width="1.5" stroke-linecap="round"/>
<path d="M1 15.3213C1 13.1763 2.50873 11.3493 4.55915 11.0112L4.74384 10.9808C6.3857 10.7101 8.05874 10.7101 9.7006 10.9808L9.8853 11.0112C11.9357 11.3493 13.4444 13.1763 13.4444 15.3213C13.4444 16.2484 12.7169 17 11.8194 17H2.625C1.72754 17 1 16.2484 1 15.3213Z" stroke="white" stroke-width="1.5"/>
<path d="M10.8519 4.5C10.8519 6.433 9.22683 8 7.22224 8C5.21765 8 3.59261 6.433 3.59261 4.5C3.59261 2.567 5.21765 1 7.22224 1C9.22683 1 10.8519 2.567 10.8519 4.5Z" stroke="white" stroke-width="1.5"/>
</svg>
