<svg width="23" height="18" viewBox="0 0 23 18" fill="none" xmlns="http://www.w3.org/2000/svg">
<path d="M2.1721 9.31152C1.93231 9.31152 1.73767 9.50617 1.73767 9.74595C1.73767 9.98573 1.93231 10.1804 2.1721 10.1804C2.41188 10.1804 2.60652 9.98573 2.60652 9.74595C2.60652 9.50617 2.41188 9.31152 2.1721 9.31152Z" fill="white"/>
<path d="M19.9669 10.8178L15.8714 12.2258C15.8896 12.125 15.8998 12.0222 15.8998 11.9178C15.8998 10.9597 15.1204 10.1801 14.1621 10.1801H11.3488C11.2742 10.1801 11.2005 10.1609 11.1355 10.1243L8.84037 8.83339C8.3866 8.57766 7.87089 8.44241 7.34908 8.44241H4.26941C4.09021 7.93688 3.60725 7.57373 3.04097 7.57373H0.434425C0.194473 7.57373 0 7.7682 0 8.00816V15.8276C0 16.0676 0.194473 16.2621 0.434425 16.2621H3.04097C3.59436 16.2621 4.06883 15.9143 4.25719 15.426C4.74898 15.487 5.31797 15.6325 5.67552 15.847L7.94743 17.2102C8.80813 17.7267 9.79356 17.9998 10.7975 17.9998C11.593 17.9998 12.3638 17.8328 13.0886 17.5036L21.1969 13.9333C22.0949 13.569 22.5383 12.4916 22.025 11.5419C21.6474 10.8431 20.7631 10.5322 19.9669 10.8178ZM3.4754 14.9608C3.47438 15.1994 3.27974 15.3932 3.04097 15.3932H0.86885V8.44258H3.04097C3.28042 8.44258 3.4754 8.63739 3.4754 8.877V14.9608ZM20.8668 13.1298C20.8622 13.1315 20.8577 13.1335 20.8531 13.1354C20.8531 13.1354 12.7327 16.7109 12.7312 16.7116C12.1194 16.9899 11.4688 17.1309 10.7975 17.1309C9.95104 17.1309 9.12021 16.9008 8.39458 16.4652L6.1225 15.102C5.63615 14.8103 4.93972 14.6325 4.34425 14.5612V9.31143H7.34908C7.72173 9.31143 8.08997 9.40782 8.41427 9.59058L10.7094 10.8815C10.9039 10.9911 11.1252 11.0491 11.3488 11.0491H14.1621C14.6411 11.0491 15.0309 11.4388 15.0309 11.918C15.0309 12.3953 14.641 12.7868 14.1621 12.7868H9.74588C9.50593 12.7868 9.31145 12.9813 9.31145 13.2213C9.31145 13.461 9.50593 13.6555 9.74588 13.6555H14.1621C14.447 13.6555 14.7275 13.5847 14.9765 13.452C14.9765 13.452 20.2566 11.637 20.2586 11.6363C20.6479 11.4958 21.0881 11.6356 21.2607 11.955C21.5195 12.4337 21.3055 12.9541 20.8668 13.1298Z" fill="white"/>
<path d="M19 6.37244e-06C18.4492 -0.00194675 18.0019 0.445319 18 0.9961C18 1.25586 18.0996 1.50586 18.2812 1.69141L16.4551 5.34571C16.416 5.33985 16.375 5.33399 16.334 5.33399C16.2051 5.33399 16.0762 5.35938 15.957 5.40821L14.5391 3.8125C14.6211 3.66602 14.666 3.50196 14.668 3.33204C14.668 2.7793 14.2207 2.33204 13.668 2.33204C13.1152 2.33204 12.668 2.7793 12.668 3.33204C12.6699 3.57032 12.7559 3.80079 12.9141 3.98047L11.1777 7.01758C11.1191 7.00586 11.0586 7 11 7C10.4473 7 10 7.44727 10 8C10 8.55273 10.4473 9 11 9C11.5527 9 12 8.55273 12 8C11.998 7.76172 11.9121 7.53125 11.7539 7.35156L13.4883 4.31446C13.6738 4.35157 13.8672 4.33204 14.041 4.25782L15.459 5.85352C15.3769 6 15.334 6.16602 15.332 6.33399C15.3301 6.88672 15.7773 7.33594 16.3281 7.33789C16.8809 7.33985 17.3301 6.89258 17.332 6.3418C17.332 6.08203 17.2324 5.83008 17.0508 5.64258L18.8769 1.98829C18.916 1.99415 18.957 2.00001 18.998 2.00001C19.5508 2.00001 19.998 1.55274 19.998 1.00001C19.998 0.447272 19.5527 6.37244e-06 19 6.37244e-06Z" fill="white"/>
</svg>
