<svg width="20" height="20" viewBox="0 0 20 20" fill="none" xmlns="http://www.w3.org/2000/svg">
<path d="M10.1954 9.66748C10.1953 9.66742 10.1952 9.66736 10.1951 9.6673L1.19593 5.75465L10.1954 9.66748ZM10.1954 9.66748C10.2577 9.69509 10.3247 9.70879 10.3914 9.70879C10.4582 9.70879 10.5251 9.69509 10.5874 9.66748C10.5875 9.66742 10.5876 9.66736 10.5878 9.6673L19.5869 5.75465C19.587 5.75461 19.587 5.75458 19.5871 5.75454C19.7669 5.67681 19.8828 5.49987 19.8828 5.3044C19.8828 5.10886 19.7669 4.93187 19.587 4.85417C19.5869 4.85417 19.5869 4.85416 19.5869 4.85415L10.5875 0.94137C10.5874 0.941335 10.5873 0.9413 10.5873 0.941265C10.4623 0.886241 10.3205 0.886245 10.1955 0.941276C10.1955 0.941307 10.1954 0.941339 10.1953 0.94137L1.19593 4.85415C1.19591 4.85416 1.19588 4.85417 1.19585 4.85418L1.1957 4.85425L10.1954 9.66748ZM10.3914 8.68191L2.6235 5.3044L10.3914 1.92688L18.1593 5.3044L10.3914 8.68191Z" fill="white" stroke="white" stroke-width="0.2"/>
<path d="M2.62356 8.43547L10.3914 11.813L18.1594 8.43542L15.5959 7.32035C15.5959 7.32035 15.5958 7.32035 15.5958 7.32035C15.3475 7.21237 15.2322 6.92269 15.3414 6.67365C15.4496 6.42429 15.7378 6.31041 15.9879 6.4193L19.5879 7.98451L19.5883 7.98467C19.7669 8.06318 19.8828 8.23988 19.8828 8.43544C19.8828 8.63098 19.7669 8.80797 19.587 8.88566C19.5869 8.88567 19.5869 8.88568 19.5869 8.88569L10.5878 12.7984C10.5876 12.7984 10.5875 12.7985 10.5874 12.7985C10.5251 12.8261 10.4582 12.8398 10.3914 12.8398C10.3247 12.8398 10.2577 12.8261 10.1954 12.7985C10.1953 12.7985 10.1952 12.7984 10.1951 12.7984L1.19593 8.88569C1.1959 8.88568 1.19587 8.88566 1.19583 8.88565L2.62356 8.43547ZM2.62356 8.43547L5.18773 7.32114L5.18775 7.32113C5.43646 7.213 5.55036 6.92318 5.44228 6.67459L5.4422 6.67442C5.33324 6.42508 5.04515 6.31205 4.79587 6.42L4.79574 6.42006L1.19593 7.98519C1.19589 7.98521 1.19584 7.98523 1.1958 7.98525L2.62356 8.43547Z" fill="white" stroke="white" stroke-width="0.2"/>
<path d="M1.19593 11.1148L4.79574 9.54967L4.79587 9.54962C5.04538 9.44156 5.33326 9.55571 5.44215 9.8039L5.44228 9.8042C5.55036 10.0528 5.43646 10.3426 5.18775 10.4507L5.18773 10.4508L2.62356 11.5651L10.3914 14.9426L18.1594 11.565L15.5959 10.45C15.5959 10.45 15.5958 10.45 15.5958 10.45C15.3475 10.342 15.2322 10.0523 15.3414 9.80321C15.4493 9.55531 15.7372 9.43889 15.9881 9.54898C15.9881 9.549 15.9882 9.54902 15.9882 9.54904L19.5879 11.1141L19.5883 11.1143C19.7669 11.1928 19.8828 11.3695 19.8828 11.5651C19.8828 11.7606 19.7669 11.9376 19.587 12.0153C19.5869 12.0153 19.5869 12.0153 19.5869 12.0153L10.5878 15.928C10.5876 15.928 10.5875 15.9281 10.5874 15.9281C10.5251 15.9557 10.4582 15.9695 10.3914 15.9695C10.3247 15.9695 10.2577 15.9557 10.1954 15.9281C10.1953 15.9281 10.1952 15.928 10.1951 15.928L1.19593 12.0153C1.19591 12.0153 1.19588 12.0153 1.19585 12.0153L1.1957 12.0152L1.19593 11.1148ZM1.19593 11.1148C1.19589 11.1148 1.19584 11.1148 1.1958 11.1149L1.19593 11.1148Z" fill="white" stroke="white" stroke-width="0.2"/>
<path d="M10.3914 18.0734L2.62356 14.6959L1.1957 15.1461L1.19585 15.1461C1.19588 15.1461 1.19591 15.1462 1.19593 15.1462L10.1951 19.0588C10.1952 19.0589 10.1953 19.0589 10.1954 19.059C10.2577 19.0866 10.3247 19.1003 10.3914 19.1003C10.4582 19.1003 10.5251 19.0866 10.5874 19.059C10.5875 19.0589 10.5876 19.0589 10.5878 19.0588L19.5869 15.1462C19.5869 15.1462 19.5869 15.1461 19.587 15.1461C19.7669 15.0684 19.8828 14.8915 19.8828 14.6959C19.8828 14.5004 19.7669 14.3237 19.5883 14.2451L19.5879 14.245L15.9882 12.6799C15.9882 12.6799 15.9881 12.6799 15.9881 12.6798C15.7372 12.5697 15.4493 12.6862 15.3414 12.9341C15.2322 13.1831 15.3475 13.4728 15.5958 13.5808C15.5958 13.5808 15.5959 13.5808 15.5959 13.5808L18.1594 14.6959L10.3914 18.0734ZM1.19593 14.2457C1.19589 14.2457 1.19584 14.2457 1.1958 14.2457L4.79556 12.6806L1.19593 14.2457Z" fill="white" stroke="white" stroke-width="0.2"/>
</svg>
