<svg width="22" height="14" viewBox="0 0 22 14" fill="none" xmlns="http://www.w3.org/2000/svg">
<path d="M21.8259 6.57276C21.6297 6.30433 16.9542 0 10.9827 0C5.01115 0 0.335404 6.30433 0.139387 6.57251C-0.0464623 6.82717 -0.0464623 7.17257 0.139387 7.42723C0.335404 7.69567 5.01115 14 10.9827 14C16.9542 14 21.6297 7.69563 21.8259 7.42745C22.012 7.17283 22.012 6.82717 21.8259 6.57276ZM10.9827 12.5517C6.584 12.5517 2.77431 8.36742 1.64656 6.99951C2.77285 5.63039 6.57457 1.44827 10.9827 1.44827C15.3811 1.44827 19.1905 5.63185 20.3187 7.00049C19.1925 8.36957 15.3907 12.5517 10.9827 12.5517Z" fill="white"/>
<path d="M10.9827 2.65527C8.58696 2.65527 6.63782 4.60442 6.63782 7.00012C6.63782 9.39583 8.58696 11.345 10.9827 11.345C13.3784 11.345 15.3275 9.39583 15.3275 7.00012C15.3275 4.60442 13.3784 2.65527 10.9827 2.65527ZM10.9827 9.89666C9.38544 9.89666 8.08613 8.5973 8.08613 7.00012C8.08613 5.40294 9.38549 4.10358 10.9827 4.10358C12.5798 4.10358 13.8792 5.40294 13.8792 7.00012C13.8792 8.5973 12.5799 9.89666 10.9827 9.89666Z" fill="white"/>
</svg>
